<?xml version="1.0" standalone="no"?>
<!DOCTYPE svg PUBLIC "-//W3C//DTD SVG 20010904//EN"
 "http://www.w3.org/TR/2001/REC-SVG-20010904/DTD/svg10.dtd">
<svg version="1.0" xmlns="http://www.w3.org/2000/svg"
 width="260.000000pt" height="260.000000pt" viewBox="0 0 260.000000 260.000000"
 preserveAspectRatio="xMidYMid meet">
<metadata>
Created by potrace 1.11, written by Peter Selinger 2001-2013
</metadata>
<g transform="translate(0.000000,260.000000) scale(0.100000,-0.100000)"
fill="#000000" stroke="none">
<path d="M1241 2164 c-58 -16 -114 -55 -159 -112 -16 -20 -105 -158 -199 -307
-93 -148 -213 -340 -267 -425 -54 -85 -103 -164 -109 -175 -7 -11 -22 -34 -34
-52 -13 -17 -23 -34 -23 -37 0 -4 -20 -37 -44 -74 -71 -108 -301 -476 -309
-492 -4 -8 -15 -26 -24 -40 l-18 -25 26 20 c229 177 355 257 614 389 115 59
338 163 365 171 5 2 22 9 120 50 248 105 904 326 1070 360 8 2 15 4 15 5 0 2
24 7 70 15 22 4 44 11 49 16 6 5 0 7 -15 4 -13 -3 -49 -8 -79 -11 -30 -3 -57
-7 -60 -9 -3 -2 -62 -13 -130 -24 -146 -24 -180 -30 -200 -36 -8 -2 -31 -7
-50 -10 -98 -17 -396 -90 -487 -120 -23 -8 -52 -16 -65 -19 -21 -4 -72 -20
-108 -33 -8 -3 -19 -7 -25 -8 -18 -5 -129 -43 -160 -56 -16 -7 -34 -13 -40
-15 -5 -1 -19 -6 -29 -10 -11 -4 -17 -4 -14 2 3 5 79 128 169 274 89 146 179
293 198 327 20 34 39 63 42 63 4 0 55 -84 114 -187 59 -104 112 -194 119 -200
9 -10 24 -9 72 6 33 10 124 30 202 46 78 15 142 32 142 37 0 5 -87 141 -193
301 -205 309 -252 365 -329 386 -67 18 -158 20 -217 5z"/>
<path d="M2000 1269 c-100 -26 -319 -99 -325 -108 -2 -5 28 -62 69 -127 40
-66 120 -198 179 -294 58 -96 112 -184 120 -195 14 -19 27 -20 261 -21 l246
-1 -15 23 c-8 13 -59 92 -111 176 -53 84 -111 176 -129 203 -18 28 -67 106
-110 175 -43 69 -88 139 -99 156 l-21 31 -65 -18z"/>
</g>
</svg>
